# xmcd CD database file
#
# Track frame offsets:
#	150
#	8545
#	49570
#	85877
#	117234
#	150021
#	173885
#	193304
#	222146
#	245856
#	273103
#	284158
#	294539
#	314402
#
# Disc length: 4554 seconds
#
# Revision: 1
# Processed by: cddbd v1.5.2PL0 Copyright (c) Steve Scherf et al.
# Submitted via: CDex 1.79
#
DISCID=c511c80e
DTITLE=Various Artist - Blue Note Trip Tease Vol.3 [CD1)
DYEAR=2012
DGENRE=Jazz
TTITLE0=Lou Rawls - Lifetime Monologue
TTITLE1=Mccoy Tyner - Contemplation
TTITLE2=Bobby Hutcherson - Bouquet
TTITLE3=Chet Baker - Slightly Above Moderate
TTITLE4=Jazz Crusaders - Blues For Ramona
TTITLE5=Art Taylor - Blue Interlude
TTITLE6=Art Farmer - Alone Together
TTITLE7=Don Ellis Orchestra - Passacaglia And Fugue
TTITLE8=Gil Evans - Manteca
TTITLE9=Gianluca Petrella - Water Everywhere
TTITLE10=Marc Moukin - Humpty Dumpty
TTITLE11=David Mccallum - House Of Mirrors
TTITLE12=Gene Harris And The Three Sounds - African Sweets
TTITLE13=Eric Dolphy - Something Sweet, Something Tender
EXTD=YEAR: 2012
EXTT0=
EXTT1=
EXTT2=
EXTT3=
EXTT4=
EXTT5=
EXTT6=
EXTT7=
EXTT8=
EXTT9=
EXTT10=
EXTT11=
EXTT12=
EXTT13=
PLAYORDER=
